<svg width="40" height="40" viewBox="0 0 40 40" fill="none" xmlns="http://www.w3.org/2000/svg">
<g clip-path="url(#clip0_508_5474)">
<path d="M20 40C31.0457 40 40 31.0457 40 20C40 8.95431 31.0457 0 20 0C8.95431 0 0 8.95431 0 20C0 31.0457 8.95431 40 20 40Z" fill="url(#paint0_linear_508_5474)"/>
<path d="M27.4205 18.1618C27.7585 15.9818 26.1125 14.7998 23.8565 13.9998L24.6005 11.0838L22.8005 10.6238L22.0645 13.4898L20.6325 13.1218L21.3685 10.2558L19.6105 9.7998L18.8585 12.7378L15.2405 11.8098L14.7505 13.7158L16.0445 14.0478C16.2885 14.0855 16.5089 14.215 16.6606 14.4098C16.8122 14.6046 16.8838 14.85 16.8605 15.0958L14.7845 23.1858C14.7577 23.2688 14.7145 23.3456 14.6575 23.4116C14.6005 23.4775 14.5307 23.5313 14.4525 23.5698C14.3758 23.611 14.2915 23.636 14.2048 23.6432C14.1181 23.6505 14.0309 23.6398 13.9485 23.6118L12.6525 23.2798L11.7725 25.3218L15.3545 26.2398L14.5865 29.2398L16.3865 29.7038L17.1545 26.7038L18.6005 27.0718L17.8385 29.9998L19.6185 30.4558L20.3785 27.4958C23.4545 28.0958 25.7465 27.8958 26.7405 25.1258C27.1212 24.3822 27.1915 23.518 26.9357 22.7227C26.68 21.9274 26.1192 21.2661 25.3765 20.8838C25.2925 20.8418 25.2085 20.8038 25.1225 20.7678C25.7391 20.6472 26.2986 20.3264 26.7141 19.8551C27.1296 19.3839 27.378 18.7886 27.4205 18.1618ZM23.2805 23.8758C22.7105 26.0958 18.9725 24.8758 17.7585 24.5538L18.7705 20.6118C19.9845 20.9238 23.8765 21.5538 23.2805 23.8758ZM23.8805 18.1138C23.3605 20.1378 20.2565 19.0818 19.2385 18.8198L20.1585 15.2378C21.1665 15.4978 24.4185 15.9878 23.8725 18.1138H23.8805Z" fill="white"/>
</g>
<defs>
<linearGradient id="paint0_linear_508_5474" x1="20" y1="40" x2="20" y2="0" gradientUnits="userSpaceOnUse">
<stop stop-color="#CF7100"/>
<stop offset="1" stop-color="#FFBA69"/>
</linearGradient>
<clipPath id="clip0_508_5474">
<rect width="40" height="40" fill="white"/>
</clipPath>
</defs>
</svg>
