<svg width="42" height="42" viewBox="0 0 42 42" fill="none" xmlns="http://www.w3.org/2000/svg">
<path d="M21 42C15.3907 42 10.1171 39.8156 6.15078 35.8492C2.18444 31.8828 0 26.6093 0 21C0 15.3907 2.18436 10.1171 6.15078 6.15078C10.1171 2.18444 15.3907 0 21 0C26.6093 0 31.8829 2.18436 35.8492 6.15078C39.8156 10.1172 42 15.3907 42 21C42 26.6093 39.8156 31.8829 35.8492 35.8492C31.8828 39.8156 26.6093 42 21 42ZM21 0.8606C9.89511 0.8606 0.860684 9.89511 0.860684 20.9999C0.860684 32.1047 9.8952 41.1392 21 41.1392C32.1048 41.1392 41.1394 32.1048 41.1394 21C41.1394 9.8952 32.1049 0.8606 21 0.8606Z" fill="url(#paint0_linear_508_5639)"/>
<path d="M20.9998 3.34888L9.38098 16.0005V32.0087C13.8564 32.9555 20.9998 38.6513 20.9998 38.6513C20.9998 38.6513 28.1433 32.9555 32.6187 32.0087V16.0005L20.9998 3.34888ZM20.9998 22.1973L16.5244 26.6727V30.2874L20.4834 37.0005L15.3195 30.4596V24.2628L20.9998 18.5231L26.6801 24.2628V30.4596L21.5161 37.0005L25.4751 30.2874V26.6727L20.9998 22.1973ZM31.0695 31.0483C31.0695 31.0483 23.9458 35.0098 22.4689 36.8207C22.6281 36.5969 26.0725 31.8108 29.4342 30.7177V21.0001L20.9998 12.5656L12.5655 21.0001V30.7177C15.9272 31.8108 19.3715 36.5969 19.5307 36.8207C18.0538 35.0098 10.9301 31.0483 10.9301 31.0483V17.4637L20.9998 7.05227L31.0695 17.4637V31.0483H31.0695Z" fill="url(#paint1_linear_508_5639)"/>
<defs>
<linearGradient id="paint0_linear_508_5639" x1="3.10221" y1="-6.36558" x2="36.035" y2="43.9883" gradientUnits="userSpaceOnUse">
<stop offset="0.0095" stop-color="#22F71E"/>
<stop offset="0.4782" stop-color="#1CED4A"/>
<stop offset="1" stop-color="#0E5711"/>
</linearGradient>
<linearGradient id="paint1_linear_508_5639" x1="1.72565" y1="-5.46529" x2="34.6584" y2="44.8884" gradientUnits="userSpaceOnUse">
<stop offset="0.0095" stop-color="#00FF29"/>
<stop offset="0.4782" stop-color="#00FF38"/>
<stop offset="1" stop-color="#0A3F12"/>
</linearGradient>
</defs>
</svg>
